<svg height="20" viewBox="0 0 20 20" width="20" xmlns="http://www.w3.org/2000/svg"><g fill="none" transform="translate(0 3)"><path d="m16.6865579 4.05116309c.13-.32954136 5.458752 2.57845931-.13-3.40869344 0 0-1.05-.33983953-3.44 1.33876177-.6116001-.17635409-1.2493841-.26025831-1.8950501-.29883129-.1037459-.00619792-.0524885-.82398446-.3310115-.82840393-.0614315-.00097477-.2439412.26848637-.5475292.80838341-.3269601-.82074711-.55835886-1.23112066-.6941963-1.23112066-.26231814 0-.18746159 1.22295381-.44979213 1.23112066-.79771955.02483452-1.58989071.10186076-2.34242077.31885181-2.39-1.68889947-3.44-1.33876177-3.44-1.33876177-5.83314797 6.08139885-.26 3.07915208-.13 3.40869344-.81.89594057-1.3 2.04933533-1.3 3.44988611 0 5.3035563 3.33 6.4981437 7.98 6.4981437s8.02-1.1945874 8.02-6.4981437c0-1.40055078-.49-2.55394554-1.3-3.44988611z" fill="#fff"/><path d="m16.6865579 4.05116309c.81.89594057 1.3 2.04933533 1.3 3.44988611 0 5.3035563-3.37 6.4981437-8.02 6.4981437s-7.98-1.1945874-7.98-6.4981437c0-1.40055078.49-2.55394554 1.3-3.44988611-.13-.32954136-5.70314797 2.67270541.13-3.40869344 0 0 1.05-.3501377 3.44 1.33876177.75253006-.21699105 1.54470122-.29401729 2.34242077-.31885181.26233054-.00816685.18747399-1.23112066.44979213-1.23112066.13583744 0 .3672362.41037355.6941963 1.23112066.303588-.53989704.4860977-.80935818.5475292-.80838341.278523.00441947.2272656.82220601.3310115.82840393.645666.03857298 1.28345.1224772 1.8950501.29883129 2.39-1.6786013 3.44-1.33876177 3.44-1.33876177 5.588752 5.98715275.26 3.07915208.13 3.40869344zm-6.75428051 1.9424082c-1.84038138.07244299-2.76057208.88138971-2.76057208 2.42684015 0 .55056667.17542097 1.07215623.47086681 1.49956983.49394852.70994133 1.33873897.33323783 2.28970527.33323783.95558261 0 1.79114041.3767035 2.28970531-.33323783.3000621-.4274136.4708668-.94175885.4708668-1.49956983 0-1.54062095-.9201907-2.34956763-2.76057211-2.42684015zm-.93352193 1.28933684c.09567151 0 .17394819.35771861.17394819.80599882 0 .44828029-.07827668.81052696-.17394819.81052696-.0956715 0-.17394818-.36677474-.17394818-.81052696 0-.44375215.07827668-.80599882.17394818-.80599882zm2.34352194-3.0609528c-.33 0-.6.25221191-.6.56117151 0 .30895959.27.56432416.6.56432416s.6-.25221192.6-.56432416c0-.31211225-.27-.56117151-.6-.56117151zm-1.41000001 7.65174187c-1.08967745 0-1.98123172.1282225-1.98123172.2852951s.89155427.2868978 1.98123172.2868978c1.08967741 0 1.98123171-.1282225 1.98123171-.2868978 0-.1586754-.8915543-.2852951-1.98123171-.2852951zm-1.41-7.65174187c-.33 0-.6.25221191-.6.56117151 0 .30895959.27.56432416.6.56432416s.6-.25221192.6-.56432416c0-.31211225-.27-.56117151-.6-.56117151zm2.34352191 3.0609528c.0971211 0 .1739482.35771861.1739482.80599882 0 .44828029-.0782767.81052696-.1739482.81052696s-.1739482-.36224667-.1739482-.81052696c0-.44828021.0782767-.80599882.1739482-.80599882z" fill="#f9a195"/></g></svg>