<svg height="20" viewBox="0 0 20 20" width="20" xmlns="http://www.w3.org/2000/svg"><g fill="none" fill-rule="nonzero"><path d="m16.6865579 7.05116309c.13-.32954136 5.458752 2.57845931-.13-3.40869344 0 0-1.05-.33983953-3.44 1.33876177-.6116001-.17635409-1.2493841-.26025831-1.8950501-.29883129-.1037459-.00619792-.0524885-.82398446-.3310115-.82840393-.0614315-.00097477-.2439412.26848637-.5475292.80838341-.3269601-.82074711-.55835886-1.23112066-.6941963-1.23112066-.26231814 0-.18746159 1.22295381-.44979213 1.23112066-.79771955.02483452-1.58989071.10186076-2.34242077.31885181-2.39-1.68889947-3.44-1.33876177-3.44-1.33876177-5.83314797 6.08139885-.26 3.07915208-.13 3.40869344-.81.89594057-1.3 2.04933533-1.3 3.44988611 0 5.3035563 3.33 6.4981437 7.98 6.4981437s8.02-1.1945874 8.02-6.4981437c0-1.40055078-.49-2.55394554-1.3-3.44988611z" fill="#fff"/><path d="m16.6865579 7.05116309c.81.89594057 1.3 2.04933533 1.3 3.44988611 0 5.3035563-3.37 6.4981437-8.02 6.4981437s-7.98-1.1945874-7.98-6.4981437c0-1.40055078.49-2.55394554 1.3-3.44988611-.13-.32954136-5.70314797 2.67270541.13-3.40869344 0 0 1.05-.3501377 3.44 1.33876177.75253006-.21699105 1.54470122-.29401729 2.34242077-.31885181.26233054-.00816685.18747399-1.23112066.44979213-1.23112066.13583744 0 .3672362.41037355.6941963 1.23112066.303588-.53989704.4860977-.80935818.5475292-.80838341.278523.00441947.2272656.82220601.3310115.82840393.645666.03857298 1.28345.1224772 1.8950501.29883129 2.39-1.6786013 3.44-1.33876177 3.44-1.33876177 5.588752 5.98715275.26 3.07915208.13 3.40869344zm-6.75428051 1.84415739c-3.17401654.10894284-4.76102482 1.32547122-4.76102482 3.64958512 0 .8279655.30254004 1.612354.81208116 2.2551167.85188906 1.0676398 2.30885819.5011371 3.94894366.5011371 1.64804701 0 3.08909301.5665027 3.94894371-.5011371.5175026-.6427627.8120811-1.4162569.8120811-2.2551167 0-2.3168511-1.5870083-3.53337942-4.76102481-3.64958512zm-1.61 1.93895942c.165 0 .3.5379524.3 1.2120952 0 .6741429-.135 1.2189048-.3 1.2189048s-.3-.5515714-.3-1.2189048c0-.6673333.135-1.2120952.3-1.2120952zm3.02000001-3.61232457c-.33 0-.6.25221191-.6.56117151 0 .30895959.27.56432416.6.56432416s.6-.25221192.6-.56432416c0-.31211225-.27-.56117151-.6-.56117151zm-1.41000001 8.65174187c-1.08967745 0-1.98123172.1282225-1.98123172.2852951s.89155427.2868978 1.98123172.2868978c1.08967741 0 1.98123171-.1282225 1.98123171-.2868978 0-.1586754-.8915543-.2852951-1.98123171-.2852951zm-1.41-8.65174187c-.33 0-.6.25221191-.6.56117151 0 .30895959.27.56432416.6.56432416s.6-.25221192.6-.56432416c0-.31211225-.27-.56117151-.6-.56117151zm3.02000001 3.61232457c.1675 0 .3.5379524.3 1.2120952 0 .6741429-.135 1.2189048-.3 1.2189048s-.3-.5447619-.3-1.2189048c0-.6741428.135-1.2120952.3-1.2120952z" fill="#f9a195"/></g></svg>